# xmcd
#
# Track frame offsets:
#	150
#	13130
#	26734
#	39449
#	52149
#	64848
#	76836
#	87227
#	99438
#	111830
#	124552
#	136708
#	148469
#	161643
#	172666
#	185682
#	198141
#	208555
#	220902
#	235669
#	247794
#	260928
#	272616
#	283857
#	297938
#
# Disc length: 4092 seconds
#
# Revision: 2
# Processed by: cddbd v1.5.2PL0 Copyright (c) Steve Scherf et al.
# Submitted via: audiograbber 1.81.03
#
DISCID=6d0ffa19
DTITLE=Lester`Flatt]p[Earl`Scruggs - Blazing Bluegrass CD Two
DYEAR=2005
DGENRE=Bluegrass
TTITLE0=Tis Sweet To Be Remembered
TTITLE1=Earl's Breakdown
TTITLE2=I'm Gonna Settle Down
TTITLE3=I'm Lonesome And Blue
TTITLE4=Over The Hills To The Poorhouse
TTITLE5=My Darling's Last Goodbye
TTITLE6=Get In Line Brothers
TTITLE7=Brother I'm Getting Ready To Go
TTITLE8=Why Did You Wander
TTITLE9=Flint Hill Special
TTITLE10=Thinking About You
TTITLE11=If I Should Wander Back To You
TTITLE12=Dim Lights Thick Smoke
TTITLE13=Dear Old Dixie
TTITLE14=I'll Go Stepping Too
TTITLE15=I'd Rather Be Alone
TTITLE16=Foggy Mountain Chimes
TTITLE17=Someone Took My Place With You
TTITLE18=Mother Prays Loud In Her Sleep
TTITLE19=Be Ready For Tomorrow May Never Come
TTITLE20=Reunion In Heaven
TTITLE21=Till The End Of The World Rolls Around
TTITLE22=You're Not A Drop In The Bucket
TTITLE23=Don't This Road Look Rough And Rocky 
TTITLE24=Foggy Mountain Special
EXTD=
EXTT0=
EXTT1=
EXTT2=
EXTT3=
EXTT4=
EXTT5=
EXTT6=
EXTT7=
EXTT8=
EXTT9=
EXTT10=
EXTT11=
EXTT12=
EXTT13=
EXTT14=
EXTT15=
EXTT16=
EXTT17=
EXTT18=
EXTT19=
EXTT20=
EXTT21=
EXTT22=
EXTT23=
EXTT24=
PLAYORDER=
